<svg width="40" height="38" viewBox="0 0 40 38" fill="none" xmlns="http://www.w3.org/2000/svg">
<rect width="40" height="37" transform="translate(0 0.5)" fill="white"/>
<path d="M32.2623 28.7371C34.7813 26.0265 36.1685 22.5685 36.1685 19C36.1685 10.7525 28.9146 4.0426 19.9983 4.0426C11.0821 4.0426 3.82812 10.7525 3.82812 19C3.82812 27.2476 11.0821 33.9575 19.9983 33.9575C23.8561 33.9575 27.5945 32.6743 30.5249 30.3442C30.789 30.1343 31.1852 30.1596 31.4164 30.3986C31.7292 30.1303 32.0311 29.8511 32.3212 29.5617C32.0627 29.3479 32.0353 28.9814 32.2623 28.7371ZM19.36 5.81388C19.36 5.48781 19.6458 5.22345 19.9983 5.22345C20.3508 5.22345 20.6366 5.48781 20.6366 5.81388V8.17558C20.6366 8.50165 20.3508 8.76601 19.9983 8.76601C19.6458 8.76601 19.36 8.50165 19.36 8.17558V5.81388ZM8.29621 19.5905H5.74302C5.39051 19.5905 5.10472 19.3261 5.10472 19C5.10472 18.674 5.39051 18.4096 5.74302 18.4096H8.29621C8.64872 18.4096 8.93451 18.674 8.93451 19C8.93451 19.3261 8.64872 19.5905 8.29621 19.5905ZM20.6366 32.1862C20.6366 32.5123 20.3508 32.7766 19.9983 32.7766C19.6458 32.7766 19.36 32.5123 19.36 32.1862V29.8245C19.36 29.4984 19.6458 29.2341 19.9983 29.2341C20.3508 29.2341 20.6366 29.4984 20.6366 29.8245V32.1862ZM30.5297 11.7635L22.3034 19.3729C22.1116 20.3895 21.1514 21.1649 19.9983 21.1649C19.5845 21.1649 19.1958 21.0647 18.8582 20.8897L12.1789 27.068C12.0543 27.1833 11.8909 27.241 11.7276 27.241C11.5643 27.241 11.4009 27.1833 11.2763 27.068C11.027 26.8374 11.027 26.4636 11.2763 26.2331L17.9555 20.0548C17.8292 19.8462 17.7394 19.6166 17.6934 19.373L12.175 14.2685C11.9257 14.0379 11.9257 13.664 12.175 13.4335L13.9804 11.7636C14.2297 11.533 14.6338 11.533 14.883 11.7636L20.4014 16.8681C20.4285 16.8724 20.4554 16.8768 20.4822 16.8821L21.352 16.0776C21.1029 15.847 21.1029 15.4733 21.3522 15.2428L27.8217 9.25858C27.9413 9.14789 28.1037 9.08562 28.273 9.08562C28.4423 9.08562 28.6046 9.14781 28.7243 9.25858L30.5297 10.9285C30.779 11.159 30.779 11.5329 30.5297 11.7635ZM31.7005 19.5905C31.348 19.5905 31.0622 19.3261 31.0622 19C31.0622 18.674 31.348 18.4096 31.7005 18.4096H34.2537C34.6062 18.4096 34.892 18.674 34.892 19C34.892 19.3261 34.6062 19.5905 34.2537 19.5905H31.7005Z" fill="#C7C7C7"/>
<path d="M32.2623 28.7371C34.7813 26.0265 36.1685 22.5685 36.1685 19C36.1685 10.7525 28.9146 4.0426 19.9983 4.0426C11.0821 4.0426 3.82812 10.7525 3.82812 19C3.82812 27.2476 11.0821 33.9575 19.9983 33.9575C23.8561 33.9575 27.5945 32.6743 30.5249 30.3442C30.789 30.1343 31.1852 30.1596 31.4164 30.3986C31.7292 30.1303 32.0311 29.8511 32.3212 29.5617C32.0627 29.3479 32.0353 28.9814 32.2623 28.7371ZM19.36 5.81388C19.36 5.48781 19.6458 5.22345 19.9983 5.22345C20.3508 5.22345 20.6366 5.48781 20.6366 5.81388V8.17558C20.6366 8.50165 20.3508 8.76601 19.9983 8.76601C19.6458 8.76601 19.36 8.50165 19.36 8.17558V5.81388ZM8.29621 19.5905H5.74302C5.39051 19.5905 5.10472 19.3261 5.10472 19C5.10472 18.674 5.39051 18.4096 5.74302 18.4096H8.29621C8.64872 18.4096 8.93451 18.674 8.93451 19C8.93451 19.3261 8.64872 19.5905 8.29621 19.5905ZM20.6366 32.1862C20.6366 32.5123 20.3508 32.7766 19.9983 32.7766C19.6458 32.7766 19.36 32.5123 19.36 32.1862V29.8245C19.36 29.4984 19.6458 29.2341 19.9983 29.2341C20.3508 29.2341 20.6366 29.4984 20.6366 29.8245V32.1862ZM30.5297 11.7635L22.3034 19.3729C22.1116 20.3895 21.1514 21.1649 19.9983 21.1649C19.5845 21.1649 19.1958 21.0647 18.8582 20.8897L12.1789 27.068C12.0543 27.1833 11.8909 27.241 11.7276 27.241C11.5643 27.241 11.4009 27.1833 11.2763 27.068C11.027 26.8374 11.027 26.4636 11.2763 26.2331L17.9555 20.0548C17.8292 19.8462 17.7394 19.6166 17.6934 19.373L12.175 14.2685C11.9257 14.0379 11.9257 13.664 12.175 13.4335L13.9804 11.7636C14.2297 11.533 14.6338 11.533 14.883 11.7636L20.4014 16.8681C20.4285 16.8724 20.4554 16.8768 20.4822 16.8821L21.352 16.0776C21.1029 15.847 21.1029 15.4733 21.3522 15.2428L27.8217 9.25858C27.9413 9.14789 28.1037 9.08562 28.273 9.08562C28.4423 9.08562 28.6046 9.14781 28.7243 9.25858L30.5297 10.9285C30.779 11.159 30.779 11.5329 30.5297 11.7635ZM31.7005 19.5905C31.348 19.5905 31.0622 19.3261 31.0622 19C31.0622 18.674 31.348 18.4096 31.7005 18.4096H34.2537C34.6062 18.4096 34.892 18.674 34.892 19C34.892 19.3261 34.6062 19.5905 34.2537 19.5905H31.7005Z" fill="url(#paint0_linear_1_1333)"/>
<path d="M17.9567 17.9455C18.1683 17.5961 18.4816 17.3063 18.8594 17.1105L14.433 13.0161L13.5303 13.8511L17.9567 17.9455Z" fill="#C7C7C7"/>
<path d="M17.9567 17.9455C18.1683 17.5961 18.4816 17.3063 18.8594 17.1105L14.433 13.0161L13.5303 13.8511L17.9567 17.9455Z" fill="url(#paint1_linear_1_1333)"/>
<path d="M22.0423 17.9454L29.1768 11.346L28.274 10.511L22.256 16.0778C22.0067 16.3083 21.6025 16.3083 21.3534 16.0778C21.3531 16.0775 20.4834 16.882 20.4834 16.882C21.1528 17.0127 21.7173 17.4089 22.0423 17.9454Z" fill="#C7C7C7"/>
<path d="M22.0423 17.9454L29.1768 11.346L28.274 10.511L22.256 16.0778C22.0067 16.3083 21.6025 16.3083 21.3534 16.0778C21.3531 16.0775 20.4834 16.882 20.4834 16.882C21.1528 17.0127 21.7173 17.4089 22.0423 17.9454Z" fill="url(#paint2_linear_1_1333)"/>
<path d="M20.0027 1.68115C9.67853 1.68115 1.2793 9.45052 1.2793 19.0003C1.2793 28.5502 9.67853 36.3195 20.0027 36.3195C30.3269 36.3195 38.7261 28.5502 38.7261 19.0003C38.7261 9.45052 30.3269 1.68115 20.0027 1.68115ZM33.2348 29.5071C33.005 29.7544 32.6021 29.7826 32.3346 29.5699C32.3314 29.5674 32.3287 29.5645 32.3255 29.5619C32.0354 29.8513 31.7336 30.1305 31.4207 30.3988C31.4235 30.4017 31.4265 30.4043 31.4293 30.4072C31.6591 30.6545 31.6287 31.0273 31.3614 31.2399C28.1995 33.7541 24.1657 35.1386 20.0027 35.1386C10.3824 35.1386 2.55589 27.899 2.55589 19.0003C2.55589 10.1016 10.3824 2.862 20.0027 2.862C29.623 2.862 37.4495 10.1016 37.4495 19.0003C37.4495 22.8511 35.9527 26.5824 33.2348 29.5071Z" fill="#C7C7C7"/>
<path d="M20.0027 1.68115C9.67853 1.68115 1.2793 9.45052 1.2793 19.0003C1.2793 28.5502 9.67853 36.3195 20.0027 36.3195C30.3269 36.3195 38.7261 28.5502 38.7261 19.0003C38.7261 9.45052 30.3269 1.68115 20.0027 1.68115ZM33.2348 29.5071C33.005 29.7544 32.6021 29.7826 32.3346 29.5699C32.3314 29.5674 32.3287 29.5645 32.3255 29.5619C32.0354 29.8513 31.7336 30.1305 31.4207 30.3988C31.4235 30.4017 31.4265 30.4043 31.4293 30.4072C31.6591 30.6545 31.6287 31.0273 31.3614 31.2399C28.1995 33.7541 24.1657 35.1386 20.0027 35.1386C10.3824 35.1386 2.55589 27.899 2.55589 19.0003C2.55589 10.1016 10.3824 2.862 20.0027 2.862C29.623 2.862 37.4495 10.1016 37.4495 19.0003C37.4495 22.8511 35.9527 26.5824 33.2348 29.5071Z" fill="url(#paint3_linear_1_1333)"/>
<path d="M34.1421 5.91853C30.3647 2.42431 25.3422 0.5 20 0.5C14.6578 0.5 9.63532 2.42431 5.85787 5.91853C2.08034 9.41275 0 14.0585 0 19C0 23.9415 2.08034 28.5873 5.85787 32.0815C9.63532 35.5757 14.6578 37.5 20 37.5C25.3422 37.5 30.3647 35.5757 34.1421 32.0815C37.9197 28.5873 40 23.9415 40 19C40 14.0585 37.9197 9.41275 34.1421 5.91853ZM20 36.3191C9.67583 36.3191 1.2766 28.5499 1.2766 19C1.2766 9.45022 9.67583 1.68085 20 1.68085C30.3242 1.68085 38.7234 9.45022 38.7234 19C38.7234 28.5499 30.3242 36.3191 20 36.3191Z" fill="#C7C7C7"/>
<path d="M34.1421 5.91853C30.3647 2.42431 25.3422 0.5 20 0.5C14.6578 0.5 9.63532 2.42431 5.85787 5.91853C2.08034 9.41275 0 14.0585 0 19C0 23.9415 2.08034 28.5873 5.85787 32.0815C9.63532 35.5757 14.6578 37.5 20 37.5C25.3422 37.5 30.3647 35.5757 34.1421 32.0815C37.9197 28.5873 40 23.9415 40 19C40 14.0585 37.9197 9.41275 34.1421 5.91853ZM20 36.3191C9.67583 36.3191 1.2766 28.5499 1.2766 19C1.2766 9.45022 9.67583 1.68085 20 1.68085C30.3242 1.68085 38.7234 9.45022 38.7234 19C38.7234 28.5499 30.3242 36.3191 20 36.3191Z" fill="url(#paint4_linear_1_1333)"/>
<path d="M21.0632 19C21.0632 18.4574 20.586 18.016 19.9994 18.016C19.4127 18.016 18.9355 18.4574 18.9355 19C18.9355 19.5427 19.4127 19.9841 19.9994 19.9841C20.586 19.9841 21.0632 19.5427 21.0632 19Z" fill="#C7C7C7"/>
<path d="M21.0632 19C21.0632 18.4574 20.586 18.016 19.9994 18.016C19.4127 18.016 18.9355 18.4574 18.9355 19C18.9355 19.5427 19.4127 19.9841 19.9994 19.9841C20.586 19.9841 21.0632 19.5427 21.0632 19Z" fill="url(#paint5_linear_1_1333)"/>
<path d="M34.8942 18.9998C34.8942 18.6738 34.6085 18.4094 34.2559 18.4094H31.7028C31.3502 18.4094 31.0645 18.6738 31.0645 18.9998C31.0645 19.3259 31.3502 19.5903 31.7028 19.5903H34.2559C34.6085 19.5903 34.8942 19.3259 34.8942 18.9998Z" fill="#C7C7C7"/>
<path d="M34.8942 18.9998C34.8942 18.6738 34.6085 18.4094 34.2559 18.4094H31.7028C31.3502 18.4094 31.0645 18.6738 31.0645 18.9998C31.0645 19.3259 31.3502 19.5903 31.7028 19.5903H34.2559C34.6085 19.5903 34.8942 19.3259 34.8942 18.9998Z" fill="url(#paint6_linear_1_1333)"/>
<path d="M20.0035 29.234C19.651 29.234 19.3652 29.4984 19.3652 29.8244V32.1861C19.3652 32.5122 19.651 32.7766 20.0035 32.7766C20.356 32.7766 20.6418 32.5122 20.6418 32.1861V29.8244C20.6418 29.4984 20.356 29.234 20.0035 29.234Z" fill="#C7C7C7"/>
<path d="M20.0035 29.234C19.651 29.234 19.3652 29.4984 19.3652 29.8244V32.1861C19.3652 32.5122 19.651 32.7766 20.0035 32.7766C20.356 32.7766 20.6418 32.5122 20.6418 32.1861V29.8244C20.6418 29.4984 20.356 29.234 20.0035 29.234Z" fill="url(#paint7_linear_1_1333)"/>
<path d="M8.29891 18.4094H5.74572C5.39321 18.4094 5.10742 18.6738 5.10742 18.9998C5.10742 19.3259 5.39321 19.5903 5.74572 19.5903H8.29891C8.65142 19.5903 8.93721 19.3259 8.93721 18.9998C8.93721 18.6738 8.65142 18.4094 8.29891 18.4094Z" fill="#C7C7C7"/>
<path d="M8.29891 18.4094H5.74572C5.39321 18.4094 5.10742 18.6738 5.10742 18.9998C5.10742 19.3259 5.39321 19.5903 5.74572 19.5903H8.29891C8.65142 19.5903 8.93721 19.3259 8.93721 18.9998C8.93721 18.6738 8.65142 18.4094 8.29891 18.4094Z" fill="url(#paint8_linear_1_1333)"/>
<path d="M28.7287 9.2584C28.6091 9.14772 28.4467 9.08545 28.2774 9.08545C28.1081 9.08545 27.9457 9.14764 27.8261 9.2584L21.3566 15.2426C21.1074 15.4731 21.1073 15.8468 21.3564 16.0774C21.6058 16.3082 22.01 16.3082 22.2593 16.0777L28.2773 10.5109L29.18 11.3459L22.0456 17.9453C21.7205 17.4088 21.156 17.0126 20.4866 16.8818C20.4599 16.8766 20.4328 16.8722 20.4058 16.8678L14.8874 11.7633C14.6382 11.5327 14.234 11.5327 13.9848 11.7633L12.1794 13.4333C11.9302 13.6638 11.9302 14.0377 12.1794 14.2682L17.6978 19.3727C17.7438 19.6163 17.8336 19.846 17.9599 20.0545L11.2807 26.2328C11.0314 26.4634 11.0314 26.8373 11.2807 27.0678C11.4053 27.183 11.5687 27.2407 11.732 27.2407C11.8953 27.2407 12.0587 27.1831 12.1833 27.0678L18.8626 20.8895C19.2002 21.0645 19.589 21.1647 20.0028 21.1647C21.1558 21.1647 22.116 20.3893 22.3077 19.3727L30.5341 11.7633C30.7834 11.5327 30.7834 11.1589 30.5341 10.9284L28.7287 9.2584ZM18.8626 17.1103C18.4848 17.3061 18.1715 17.5958 17.9599 17.9453L13.5335 13.8509L14.4362 13.0159L18.8626 17.1103ZM18.9389 19C18.9389 18.4573 19.4161 18.0159 20.0028 18.0159C20.5894 18.0159 21.0666 18.4573 21.0666 19C21.0666 19.5426 20.5894 19.984 20.0028 19.984C19.4161 19.984 18.9389 19.5426 18.9389 19Z" fill="#C7C7C7"/>
<path d="M28.7287 9.2584C28.6091 9.14772 28.4467 9.08545 28.2774 9.08545C28.1081 9.08545 27.9457 9.14764 27.8261 9.2584L21.3566 15.2426C21.1074 15.4731 21.1073 15.8468 21.3564 16.0774C21.6058 16.3082 22.01 16.3082 22.2593 16.0777L28.2773 10.5109L29.18 11.3459L22.0456 17.9453C21.7205 17.4088 21.156 17.0126 20.4866 16.8818C20.4599 16.8766 20.4328 16.8722 20.4058 16.8678L14.8874 11.7633C14.6382 11.5327 14.234 11.5327 13.9848 11.7633L12.1794 13.4333C11.9302 13.6638 11.9302 14.0377 12.1794 14.2682L17.6978 19.3727C17.7438 19.6163 17.8336 19.846 17.9599 20.0545L11.2807 26.2328C11.0314 26.4634 11.0314 26.8373 11.2807 27.0678C11.4053 27.183 11.5687 27.2407 11.732 27.2407C11.8953 27.2407 12.0587 27.1831 12.1833 27.0678L18.8626 20.8895C19.2002 21.0645 19.589 21.1647 20.0028 21.1647C21.1558 21.1647 22.116 20.3893 22.3077 19.3727L30.5341 11.7633C30.7834 11.5327 30.7834 11.1589 30.5341 10.9284L28.7287 9.2584ZM18.8626 17.1103C18.4848 17.3061 18.1715 17.5958 17.9599 17.9453L13.5335 13.8509L14.4362 13.0159L18.8626 17.1103ZM18.9389 19C18.9389 18.4573 19.4161 18.0159 20.0028 18.0159C20.5894 18.0159 21.0666 18.4573 21.0666 19C21.0666 19.5426 20.5894 19.984 20.0028 19.984C19.4161 19.984 18.9389 19.5426 18.9389 19Z" fill="url(#paint9_linear_1_1333)"/>
<path d="M20.0005 2.86157C10.3803 2.86157 2.55371 10.1012 2.55371 18.9999C2.55371 27.8986 10.3803 35.1382 20.0005 35.1382C24.1635 35.1382 28.1974 33.7537 31.3592 31.2395C31.6266 31.027 31.657 30.6542 31.4272 30.4069C31.4244 30.4039 31.4213 30.4014 31.4185 30.3985C31.1873 30.1594 30.7912 30.1341 30.527 30.3441C27.5967 32.6741 23.8583 33.9573 20.0005 33.9573C11.0843 33.9573 3.83031 27.2474 3.83031 18.9999C3.83031 10.7523 11.0843 4.04242 20.0005 4.04242C28.9168 4.04242 36.1707 10.7523 36.1707 18.9999C36.1707 22.5683 34.7835 26.0263 32.2645 28.7369C32.0375 28.9812 32.0649 29.3477 32.3233 29.5616C32.3265 29.5642 32.3292 29.567 32.3324 29.5696C32.5999 29.7821 33.0028 29.754 33.2326 29.5068C35.9506 26.582 37.4473 22.8506 37.4473 18.9999C37.4473 10.1012 29.6208 2.86157 20.0005 2.86157Z" fill="#C7C7C7"/>
<path d="M20.0005 2.86157C10.3803 2.86157 2.55371 10.1012 2.55371 18.9999C2.55371 27.8986 10.3803 35.1382 20.0005 35.1382C24.1635 35.1382 28.1974 33.7537 31.3592 31.2395C31.6266 31.027 31.657 30.6542 31.4272 30.4069C31.4244 30.4039 31.4213 30.4014 31.4185 30.3985C31.1873 30.1594 30.7912 30.1341 30.527 30.3441C27.5967 32.6741 23.8583 33.9573 20.0005 33.9573C11.0843 33.9573 3.83031 27.2474 3.83031 18.9999C3.83031 10.7523 11.0843 4.04242 20.0005 4.04242C28.9168 4.04242 36.1707 10.7523 36.1707 18.9999C36.1707 22.5683 34.7835 26.0263 32.2645 28.7369C32.0375 28.9812 32.0649 29.3477 32.3233 29.5616C32.3265 29.5642 32.3292 29.567 32.3324 29.5696C32.5999 29.7821 33.0028 29.754 33.2326 29.5068C35.9506 26.582 37.4473 22.8506 37.4473 18.9999C37.4473 10.1012 29.6208 2.86157 20.0005 2.86157Z" fill="url(#paint10_linear_1_1333)"/>
<defs>
<linearGradient id="paint0_linear_1_1333" x1="19.9983" y1="4.0426" x2="19.9983" y2="33.9575" gradientUnits="userSpaceOnUse">
<stop stop-color="white"/>
<stop offset="1" stop-color="white" stop-opacity="0"/>
</linearGradient>
<linearGradient id="paint1_linear_1_1333" x1="16.1948" y1="13.0161" x2="16.1948" y2="17.9455" gradientUnits="userSpaceOnUse">
<stop stop-color="white"/>
<stop offset="1" stop-color="white" stop-opacity="0"/>
</linearGradient>
<linearGradient id="paint2_linear_1_1333" x1="24.8301" y1="10.511" x2="24.8301" y2="17.9454" gradientUnits="userSpaceOnUse">
<stop stop-color="white"/>
<stop offset="1" stop-color="white" stop-opacity="0"/>
</linearGradient>
<linearGradient id="paint3_linear_1_1333" x1="20.0027" y1="1.68115" x2="20.0027" y2="36.3195" gradientUnits="userSpaceOnUse">
<stop stop-color="white"/>
<stop offset="1" stop-color="white" stop-opacity="0"/>
</linearGradient>
<linearGradient id="paint4_linear_1_1333" x1="20" y1="0.5" x2="20" y2="37.5" gradientUnits="userSpaceOnUse">
<stop stop-color="white"/>
<stop offset="1" stop-color="white" stop-opacity="0"/>
</linearGradient>
<linearGradient id="paint5_linear_1_1333" x1="19.9994" y1="18.016" x2="19.9994" y2="19.9841" gradientUnits="userSpaceOnUse">
<stop stop-color="white"/>
<stop offset="1" stop-color="white" stop-opacity="0"/>
</linearGradient>
<linearGradient id="paint6_linear_1_1333" x1="32.9794" y1="18.4094" x2="32.9794" y2="19.5903" gradientUnits="userSpaceOnUse">
<stop stop-color="white"/>
<stop offset="1" stop-color="white" stop-opacity="0"/>
</linearGradient>
<linearGradient id="paint7_linear_1_1333" x1="20.0035" y1="29.234" x2="20.0035" y2="32.7766" gradientUnits="userSpaceOnUse">
<stop stop-color="white"/>
<stop offset="1" stop-color="white" stop-opacity="0"/>
</linearGradient>
<linearGradient id="paint8_linear_1_1333" x1="7.02232" y1="18.4094" x2="7.02232" y2="19.5903" gradientUnits="userSpaceOnUse">
<stop stop-color="white"/>
<stop offset="1" stop-color="white" stop-opacity="0"/>
</linearGradient>
<linearGradient id="paint9_linear_1_1333" x1="20.9074" y1="9.08545" x2="20.9074" y2="27.2407" gradientUnits="userSpaceOnUse">
<stop stop-color="white"/>
<stop offset="1" stop-color="white" stop-opacity="0"/>
</linearGradient>
<linearGradient id="paint10_linear_1_1333" x1="20.0005" y1="2.86157" x2="20.0005" y2="35.1382" gradientUnits="userSpaceOnUse">
<stop stop-color="white"/>
<stop offset="1" stop-color="white" stop-opacity="0"/>
</linearGradient>
</defs>
</svg>
