<svg width="32" height="36" viewBox="0 0 32 36" fill="none" xmlns="http://www.w3.org/2000/svg">
<path d="M28.911 14.4011H23.7793V13.6927C23.7793 13.267 23.4342 12.9219 23.0085 12.9219H8.99475C8.56906 12.9219 8.22396 13.267 8.22396 13.6927V14.4011H3.0922C2.6665 14.4011 2.32141 14.7462 2.32141 15.1719V18.6624C2.32141 19.6167 2.69308 20.514 3.36792 21.1888C4.04277 21.8636 4.93996 22.2353 5.89427 22.2353H8.42136C9.15933 25.4435 11.8874 27.9 15.2309 28.2305V31.7002H13.1666C11.9743 31.7002 11.0042 32.6702 11.0042 33.8625V35.1299C11.0042 35.5556 11.3493 35.9007 11.775 35.9007H20.2284C20.6541 35.9007 20.9992 35.5556 20.9992 35.1299V33.8625C20.9992 32.6702 20.0291 31.7002 18.8368 31.7002H16.7725V28.2304C20.1161 27.8999 22.8441 25.4434 23.582 22.2353H26.109C28.0792 22.2353 29.682 20.6325 29.682 18.6623V15.1719C29.6818 14.7462 29.3367 14.4011 28.911 14.4011ZM19.4575 33.8625V34.3591H12.5457V33.8625C12.5457 33.5202 12.8243 33.2418 13.1666 33.2418H18.8367C19.179 33.2417 19.4575 33.5201 19.4575 33.8625ZM8.22521 20.6937H5.8942C5.35164 20.6937 4.84152 20.4824 4.45796 20.0988C4.07418 19.7151 3.86299 19.205 3.86299 18.6625V15.9428H8.22529V20.6937H8.22521ZM22.2377 20.4909C22.2377 23.9295 19.4402 26.727 16.0016 26.727C12.563 26.727 9.76554 23.9295 9.76554 20.4909V14.4635H22.2377V20.4909ZM23.778 15.9427H28.1403V18.6623C28.1403 19.7824 27.2291 20.6937 26.109 20.6937H23.778V15.9427Z" fill="#37373F"/>
<path d="M12.7289 7.19825L12.1506 10.2502C12.095 10.5432 12.2135 10.842 12.4549 11.0173C12.6963 11.1926 13.0169 11.213 13.2785 11.0696L16.0023 9.57654L18.7262 11.0696C18.8421 11.1331 18.9696 11.1644 19.0967 11.1644C19.2564 11.1644 19.4154 11.1149 19.5498 11.0173C19.791 10.842 19.9095 10.5432 19.8541 10.2502L19.2759 7.19825L21.5374 5.06912C21.7546 4.86467 21.8343 4.55335 21.7422 4.2697C21.65 3.98605 21.4025 3.78102 21.1067 3.74329L18.0253 3.35018L16.6993 0.541137C16.572 0.271435 16.3005 0.0993652 16.0023 0.0993652C15.704 0.0993652 15.4326 0.271435 15.3053 0.541137L13.9792 3.35018L10.8979 3.74329C10.6021 3.78102 10.3546 3.98605 10.2624 4.2697C10.1703 4.55328 10.25 4.86475 10.4671 5.06912L12.7289 7.19825ZM14.5935 4.82591C14.8546 4.79259 15.0806 4.62837 15.193 4.39031L16.0023 2.67578L16.8116 4.39031C16.9239 4.6283 17.15 4.79251 17.4111 4.82591L19.2919 5.06589L17.9115 6.36544C17.7199 6.54587 17.6336 6.81154 17.6825 7.07016L18.0355 8.93312L16.3728 8.02175C16.2574 7.95847 16.1298 7.92683 16.0023 7.92683C15.8748 7.92683 15.7472 7.95847 15.6318 8.02175L13.9692 8.93304L14.3223 7.07016C14.3713 6.81161 14.2849 6.5458 14.0933 6.36544L12.7128 5.06589L14.5935 4.82591Z" fill="#FC9B09"/>
<path d="M31.9624 7.01975C31.8701 6.7361 31.6227 6.53107 31.3269 6.49334L29.1049 6.20984L28.1488 4.1842C28.0215 3.9145 27.75 3.74243 27.4518 3.74243C27.1536 3.74243 26.882 3.9145 26.7548 4.1842L25.7985 6.20984L23.5766 6.49334C23.2808 6.53107 23.0333 6.7361 22.9411 7.01975C22.849 7.30333 22.9287 7.61473 23.1459 7.81917L24.7768 9.35443L24.3597 11.5551C24.3042 11.8481 24.4226 12.147 24.664 12.3222C24.7984 12.4198 24.9574 12.4694 25.1172 12.4694C25.2442 12.4694 25.3717 12.438 25.4876 12.3745L27.4518 11.2979L29.416 12.3745C29.6776 12.518 29.9983 12.4976 30.2396 12.3222C30.4808 12.1469 30.5993 11.8482 30.5439 11.5551L30.1269 9.35443L31.7578 7.81917C31.9748 7.61473 32.0545 7.3034 31.9624 7.01975ZM28.7625 8.52162C28.571 8.70198 28.4846 8.96772 28.5336 9.22634L28.7253 10.2381L27.8222 9.74313C27.7068 9.67985 27.5792 9.64821 27.4517 9.64821C27.3242 9.64821 27.1966 9.67985 27.0812 9.74313L26.1784 10.238L26.37 9.22634C26.4191 8.96779 26.3327 8.70198 26.1411 8.52154L25.3913 7.81587L26.4127 7.68557C26.6738 7.65231 26.8998 7.4881 27.0121 7.25003L27.4516 6.31892L27.8911 7.25003C28.0034 7.48802 28.2295 7.65224 28.4906 7.68557L29.512 7.81587L28.7625 8.52162Z" fill="#FC9B09"/>
<path d="M4.54831 11.298L6.51258 12.3746C6.77413 12.518 7.09485 12.4976 7.33614 12.3223C7.57736 12.147 7.69584 11.8483 7.64042 11.5552L7.22346 9.35451L8.8543 7.81924C9.07145 7.6148 9.15117 7.30348 9.05904 7.01983C8.96684 6.73618 8.71938 6.53115 8.42354 6.49341L6.20154 6.20984L5.24533 4.1842C5.11804 3.9145 4.8465 3.74243 4.54831 3.74243C4.25013 3.74243 3.97859 3.9145 3.8513 4.1842L2.89516 6.20984L0.67323 6.49334C0.377394 6.53107 0.129934 6.7361 0.0377332 7.01975C-0.0543944 7.30333 0.0253273 7.61473 0.242469 7.81917L1.87346 9.35443L1.45635 11.5551C1.40078 11.8481 1.51926 12.147 1.76063 12.3222C1.89504 12.4198 2.05404 12.4694 2.21378 12.4694C2.34085 12.4694 2.46836 12.438 2.5842 12.3745L4.54831 11.298ZM3.50936 7.68557C3.77048 7.65231 3.9965 7.4881 4.10882 7.25003L4.54831 6.31892L4.98781 7.25003C5.10012 7.48802 5.32615 7.65224 5.58726 7.68557L6.60874 7.81587L5.85909 8.52162C5.6675 8.70198 5.58117 8.96772 5.63013 9.22634L5.8218 10.2381L4.91873 9.74313C4.80333 9.67985 4.67575 9.64821 4.54824 9.64821C4.42073 9.64821 4.29315 9.67985 4.17775 9.74313L3.2749 10.238L3.46657 9.22634C3.5156 8.96779 3.4292 8.70198 3.23761 8.52154L2.48789 7.81587L3.50936 7.68557Z" fill="#FC9B09"/>
</svg>
