<svg width="33" height="34" viewBox="0 0 33 34" fill="none" xmlns="http://www.w3.org/2000/svg">
<g clip-path="url(#clip0_1_1345)">
<path d="M25.1434 9.22598C25.1434 4.45176 21.2738 0.582153 16.4989 0.582153C11.724 0.582153 7.8551 4.45176 7.8551 9.22598C7.8551 16.0661 16.4989 26.1879 16.4989 26.1879C16.4989 26.1879 25.1434 16.0309 25.1434 9.22598ZM12.236 8.70985C12.236 6.35482 14.1453 4.44624 16.4996 4.44624C18.854 4.44624 20.7632 6.35482 20.7632 8.70985C20.7632 11.0649 18.854 12.9735 16.4996 12.9735C14.1453 12.9735 12.236 11.0649 12.236 8.70985Z" fill="#37373F"/>
<path d="M16.499 10.8061C17.6567 10.8061 18.5952 9.86753 18.5952 8.70979C18.5952 7.55206 17.6567 6.61353 16.499 6.61353C15.3412 6.61353 14.4027 7.55206 14.4027 8.70979C14.4027 9.86753 15.3412 10.8061 16.499 10.8061Z" fill="#C94042"/>
<path d="M21.3863 23.1809C20.6818 24.1994 20.0208 25.086 19.4702 25.7981C24.9323 26.1266 28.5121 27.3058 29.8439 28.1828C28.2837 29.2116 23.6482 30.6579 16.5003 30.6579C9.35316 30.6579 4.71695 29.211 3.15682 28.1828C4.48855 27.3058 8.06559 26.1273 13.5222 25.7988C12.9702 25.0867 12.3085 24.2008 11.6033 23.1823C4.88186 23.844 0 25.8326 0 28.1821C0 31.0733 7.388 33.418 16.5003 33.418C25.6134 33.418 33 31.0747 33 28.1821C33.0014 25.8313 28.114 23.8419 21.3863 23.1809Z" fill="#37373F"/>
</g>
<defs>
<clipPath id="clip0_1_1345">
<rect width="33" height="33" fill="white" transform="translate(0 0.5)"/>
</clipPath>
</defs>
</svg>
