<svg width="31" height="32" viewBox="0 0 31 32" fill="none" xmlns="http://www.w3.org/2000/svg">
<path d="M28.093 16.6412C29.5287 15.1628 30.3945 13.2482 30.3945 11.1562C30.3945 6.47475 25.6943 2.67969 20.3438 2.67969C14.9932 2.67969 10.6562 6.47475 10.6562 11.1562L20.3438 19.6328C21.7732 19.6328 23.4941 19.3615 24.7159 18.8753C25.8225 20.085 27.4145 20.8438 29.1836 20.8438C28.046 19.7061 27.682 18.0865 28.093 16.6412Z" fill="#FC9B09"/>
<path d="M15.6483 12.3672C18.4621 13.8506 20.3438 16.5492 20.3438 19.6328C20.3438 24.3143 16.0068 28.1094 10.6562 28.1094C9.22678 28.1094 7.50592 27.8381 6.2841 27.3518C5.17747 28.5616 3.58551 29.3203 1.81641 29.3203C2.95403 28.1827 3.31802 26.5631 2.90696 25.1177C1.47134 23.6393 0.605469 21.7248 0.605469 19.6328C0.605469 14.9513 5.30566 11.1562 10.6562 11.1562C12.4824 11.1562 14.1909 11.5983 15.6483 12.3672Z" fill="white"/>
<path d="M15.5 8.12891C15.1658 8.12891 14.8945 8.40018 14.8945 8.73438C14.8945 9.06857 15.1658 9.33984 15.5 9.33984C15.8342 9.33984 16.1055 9.06857 16.1055 8.73438C16.1055 8.40018 15.8342 8.12891 15.5 8.12891Z" fill="white"/>
<path d="M5.44922 19.0273C5.78341 19.0273 6.05469 18.7561 6.05469 18.4219C6.05469 18.0877 5.78341 17.8164 5.44922 17.8164C5.11503 17.8164 4.84375 18.0877 4.84375 18.4219C4.84375 18.7561 5.11503 19.0273 5.44922 19.0273Z" fill="#C94042"/>
<path d="M20.3438 2.07422C14.8929 2.07422 10.419 5.83238 10.073 10.5662C4.88183 10.8266 0 14.5698 0 19.6328C0 21.7486 0.83725 23.7987 2.36133 25.4231C2.66288 26.6662 2.29676 27.9838 1.38832 28.8922C1.21519 29.0654 1.1634 29.3258 1.25706 29.5521C1.35072 29.7782 1.57138 29.9258 1.81641 29.9258C3.54317 29.9258 5.20727 29.2486 6.44375 28.0555C7.6483 28.466 9.21992 28.7148 10.6562 28.7148C16.1064 28.7148 20.5798 24.9576 20.9268 20.2248C22.1945 20.1685 23.513 19.9344 24.5563 19.5789C25.7927 20.7721 27.4568 21.4492 29.1836 21.4492C29.4286 21.4492 29.6493 21.3016 29.7429 21.0755C29.8366 20.8492 29.7848 20.5888 29.6117 20.4157C28.7032 19.5072 28.3371 18.1896 28.6387 16.9465C30.1628 15.3222 31 13.2721 31 11.1562C31 5.89553 25.7421 2.07422 20.3438 2.07422ZM10.6562 27.5039C9.22725 27.5039 7.59887 27.2234 6.50808 26.7894C6.27441 26.6962 6.00739 26.7575 5.83733 26.9431C5.10628 27.7423 4.15574 28.2995 3.12006 28.5557C3.69076 27.4623 3.83645 26.1733 3.48925 24.952C3.46181 24.8557 3.41096 24.7677 3.34119 24.696C1.96754 23.2812 1.21094 21.483 1.21094 19.6328C1.21094 15.3661 5.53625 11.7617 10.6562 11.7617C15.491 11.7617 19.7383 15.1237 19.7383 19.6328C19.7383 23.973 15.6641 27.5039 10.6562 27.5039ZM27.6588 16.2195C27.589 16.2914 27.5382 16.3794 27.5107 16.4754C27.1636 17.6967 27.3092 18.9857 27.8799 20.0791C26.8443 19.8232 25.8937 19.2657 25.1627 18.4666C24.9926 18.2812 24.7256 18.2197 24.4919 18.3128C23.5466 18.6889 22.198 18.9493 20.9249 19.0122C20.7479 16.7225 19.6058 14.5705 17.6532 12.9727H25.5508C25.8852 12.9727 26.1562 12.7016 26.1562 12.3672C26.1562 12.0328 25.8852 11.7617 25.5508 11.7617H15.793C14.4187 11.0621 12.8754 10.6541 11.287 10.5685C11.6349 6.50195 15.5641 3.28516 20.3438 3.28516C25.4637 3.28516 29.7891 6.88959 29.7891 11.1562C29.7891 13.0065 29.0325 14.8047 27.6588 16.2195Z" fill="#37373F"/>
<path d="M15.5 17.8164H7.87109C7.53667 17.8164 7.26562 18.0874 7.26562 18.4219C7.26562 18.7563 7.53667 19.0273 7.87109 19.0273H15.5C15.8344 19.0273 16.1055 18.7563 16.1055 18.4219C16.1055 18.0874 15.8344 17.8164 15.5 17.8164Z" fill="#C94042"/>
<path d="M15.5 21.4492H5.44922C5.11479 21.4492 4.84375 21.7203 4.84375 22.0547C4.84375 22.3891 5.11479 22.6602 5.44922 22.6602H15.5C15.8344 22.6602 16.1055 22.3891 16.1055 22.0547C16.1055 21.7203 15.8344 21.4492 15.5 21.4492Z" fill="#37373F"/>
<path d="M25.5508 8.12891H17.9219C17.5874 8.12891 17.3164 8.39995 17.3164 8.73438C17.3164 9.0688 17.5874 9.33984 17.9219 9.33984H25.5508C25.8852 9.33984 26.1562 9.0688 26.1562 8.73438C26.1562 8.39995 25.8852 8.12891 25.5508 8.12891Z" fill="white"/>
</svg>
